<?xml version="1.0" standalone="no"?>
<!DOCTYPE svg PUBLIC "-//W3C//DTD SVG 20010904//EN"
 "http://www.w3.org/TR/2001/REC-SVG-20010904/DTD/svg10.dtd">
<svg version="1.0" xmlns="http://www.w3.org/2000/svg"
 width="260.000000pt" height="260.000000pt" viewBox="0 0 260.000000 260.000000"
 preserveAspectRatio="xMidYMid meet">
<metadata>
Created by potrace 1.14, written by Peter Selinger 2001-2017
</metadata>
<g transform="translate(0.000000,260.000000) scale(0.100000,-0.100000)"
fill="#000000" stroke="none">
<path d="M1286 2428 c-4 -29 -8 -62 -7 -73 0 -18 -2 -17 -14 5 -12 21 -14 22
-15 6 0 -17 -14 -15 -16 2 -3 26 -18 62 -25 62 -8 0 -6 -22 7 -72 3 -9 0 -19
-6 -23 -5 -3 -10 -1 -10 4 0 6 -5 11 -11 11 -5 0 -8 -4 -4 -9 3 -5 2 -12 -3
-15 -5 -3 -15 10 -22 29 -17 44 -32 46 -18 3 5 -18 12 -41 15 -50 3 -10 15
-19 27 -19 15 -1 16 -3 5 -6 -10 -2 -15 -11 -12 -22 4 -16 11 -17 64 -9 35 6
83 6 118 0 53 -8 60 -7 64 9 3 11 -2 20 -12 22 -12 4 -11 5 4 6 15 1 25 14 37
46 10 26 13 47 7 50 -5 4 -9 -3 -9 -13 0 -27 -22 -42 -48 -35 -15 3 -21 11
-18 22 15 52 17 83 7 77 -6 -4 -14 -25 -17 -47 -6 -38 -24 -55 -24 -22 0 15
-2 14 -14 -3 -15 -19 -15 -19 -15 1 -2 59 -10 110 -18 112 -6 2 -13 -20 -17
-49z m-49 -134 c-3 -3 -12 -4 -19 -1 -8 3 -5 6 6 6 11 1 17 -2 13 -5z m40 0
c-3 -3 -12 -4 -19 -1 -8 3 -5 6 6 6 11 1 17 -2 13 -5z"/>
<path d="M956 2345 c-19 -50 2 -113 46 -136 19 -10 20 -9 15 11 -4 17 -3 20 6
11 18 -18 27 -13 27 17 0 31 -3 36 -51 80 -31 28 -37 31 -43 17z"/>
<path d="M1583 2322 c-23 -20 -43 -44 -44 -52 -3 -29 1 -50 10 -50 5 0 12 8
14 18 3 10 5 6 6 -11 1 -24 3 -26 21 -17 30 16 52 67 47 107 -3 19 -7 36 -8
38 -2 2 -23 -13 -46 -33z"/>
<path d="M778 2263 c0 -10 -2 -25 -3 -33 -1 -8 4 -27 11 -41 16 -33 44 -46 44
-21 0 14 2 14 9 3 7 -11 10 -9 16 7 8 26 -1 42 -42 77 -29 24 -33 25 -35 8z"/>
<path d="M1763 2246 c-23 -22 -33 -40 -33 -61 1 -29 1 -29 17 -10 15 20 15 20
10 -2 -7 -29 4 -29 31 0 22 23 31 91 15 100 -5 2 -23 -10 -40 -27z"/>
<path d="M677 2184 c-30 -62 -20 -126 26 -166 22 -20 28 -22 26 -10 -1 4 0 21
1 37 l2 30 10 -35 c9 -33 11 -34 24 -15 24 33 11 98 -27 125 -3 3 -15 20 -26
37 l-20 33 -16 -36z"/>
<path d="M1880 2202 c0 -5 -16 -29 -36 -54 -37 -48 -46 -89 -26 -124 10 -17
12 -16 26 16 l15 35 1 -39 0 -40 29 28 c36 35 47 87 29 140 -12 35 -38 62 -38
38z"/>
<path d="M1145 2106 c-17 -7 -45 -30 -63 -50 -29 -34 -37 -51 -47 -102 -2 -10
-4 -21 -5 -24 0 -3 -9 5 -19 16 -24 30 -94 64 -128 64 -26 -1 -25 -2 10 -15
105 -37 155 -158 108 -260 -10 -22 -30 -51 -44 -64 l-26 -24 -90 68 c-117 89
-136 125 -107 208 12 31 12 36 0 27 -23 -20 -37 -80 -31 -136 l6 -54 -34 0
c-25 0 -40 -8 -59 -31 -28 -33 -29 -37 -26 -84 3 -53 19 -65 20 -15 0 50 6 62
35 78 81 42 248 -74 320 -222 18 -39 36 -84 40 -99 6 -31 4 -31 -62 -6 -29 11
-64 62 -98 142 -31 76 -70 114 -132 127 -51 12 -52 6 -1 -21 25 -15 51 -40 65
-64 33 -58 29 -68 -13 -43 -50 29 -121 29 -166 -1 -18 -13 -24 -19 -13 -15 42
15 93 16 121 0 l29 -15 -30 -1 c-91 -1 -177 -125 -161 -232 10 -63 24 -79 18
-19 -6 67 31 145 85 181 44 28 138 35 167 11 14 -12 12 -15 -17 -35 -41 -27
-67 -80 -66 -131 l1 -40 10 38 c6 20 23 51 39 68 27 29 33 31 74 26 54 -8 112
-36 185 -90 55 -41 158 -136 131 -121 -8 4 -70 7 -138 6 -137 -2 -181 9 -221
56 l-23 27 17 -40 c29 -71 29 -73 -9 -83 -19 -5 -47 -7 -63 -5 -37 7 -92 48
-106 79 -15 33 -30 31 -18 -2 16 -41 50 -84 81 -103 l29 -18 -25 -33 c-25 -33
-65 -129 -65 -153 0 -7 13 11 29 38 38 66 109 131 179 163 69 31 186 39 277
17 33 -7 60 -13 60 -12 3 9 64 86 79 100 20 18 20 19 -47 79 -81 72 -106 113
-84 135 20 20 84 19 106 -1 26 -23 34 -19 16 8 -28 43 -107 62 -154 37 -18
-10 -22 -7 -36 19 -40 77 -15 137 62 147 56 7 87 -2 119 -35 l26 -27 -16 32
c-9 17 -30 41 -47 54 -37 26 -116 37 -148 19 -21 -11 -22 -10 -10 12 70 134
126 163 203 106 l30 -21 -23 31 c-12 18 -31 37 -41 42 -24 13 -78 15 -115 5
-35 -10 -36 -12 47 85 26 30 52 69 58 85 l11 30 -33 -36 c-18 -20 -45 -45 -60
-54 l-28 -17 0 33 c0 66 65 141 137 158 l38 9 -45 1 c-25 0 -59 -6 -75 -13z"/>
<path d="M1363 2107 c57 -17 93 -48 118 -102 43 -92 13 -104 -70 -29 -76 68
-53 17 32 -73 38 -40 68 -76 65 -78 -3 -3 -16 -2 -29 3 -51 19 -115 -6 -148
-58 l-15 -25 27 25 c20 17 39 24 68 24 47 0 71 -22 118 -101 l30 -52 -25 9
c-37 14 -91 12 -123 -5 -32 -16 -81 -70 -81 -88 0 -7 5 -4 11 6 15 25 63 47
104 47 89 0 128 -63 90 -145 -16 -32 -16 -32 -53 -19 -20 7 -48 10 -62 7 -33
-8 -77 -39 -91 -65 -10 -19 -9 -19 19 2 33 25 92 30 116 11 14 -12 14 -16 0
-43 -19 -36 -33 -50 -139 -144 -44 -39 -92 -88 -107 -110 -35 -51 -53 -119
-44 -168 l7 -38 62 65 c96 99 203 145 342 145 153 0 272 -68 349 -201 l18 -32
-6 33 c-8 47 -35 102 -64 135 -18 18 -21 27 -11 27 33 0 109 93 109 135 0 14
-5 10 -19 -15 -34 -64 -108 -97 -176 -79 l-34 10 19 45 c27 62 25 72 -6 35
-35 -42 -77 -51 -226 -49 l-127 1 46 41 c71 63 123 100 178 129 119 64 173 44
214 -78 9 -27 10 -25 7 20 -4 63 -28 112 -67 133 -37 21 -36 27 2 41 45 16 78
13 125 -8 70 -32 112 -107 109 -194 -2 -31 0 -35 8 -21 6 10 10 41 10 69 0 99
-65 185 -155 205 l-33 7 30 12 c17 7 47 10 69 8 35 -5 37 -4 23 10 -24 24
-105 21 -156 -5 l-41 -22 15 37 c20 48 52 82 93 99 17 8 32 16 32 18 0 4 -7 3
-62 -9 -49 -10 -94 -60 -124 -137 -16 -39 -41 -84 -57 -99 -29 -29 -89 -53
-95 -37 -7 16 30 109 67 165 63 98 157 167 241 178 35 4 45 1 66 -21 21 -20
25 -33 22 -65 -3 -35 -2 -38 9 -23 27 37 6 121 -36 144 -11 5 -34 10 -51 10
-20 0 -29 4 -24 11 24 39 10 134 -27 179 l-20 25 14 -30 c29 -58 25 -114 -9
-155 -15 -17 -60 -56 -101 -86 -71 -53 -74 -54 -98 -38 -33 22 -67 95 -67 147
0 85 57 166 129 185 36 9 36 10 9 11 -36 1 -113 -35 -129 -60 -16 -25 -27 -24
-27 3 0 36 -40 107 -76 134 -25 20 -48 27 -96 30 l-63 4 48 -13z"/>
<path d="M536 2028 c9 -70 23 -95 67 -117 45 -22 62 -19 47 9 -15 29 -12 32
15 14 24 -16 25 -16 25 8 0 37 -27 67 -88 96 -32 14 -60 28 -64 30 -4 2 -5
-16 -2 -40z"/>
<path d="M2034 2060 c-6 -6 -33 -19 -60 -29 -51 -19 -74 -47 -74 -90 0 -23 1
-23 18 -8 28 25 34 20 17 -12 -15 -30 -15 -30 13 -25 42 8 72 32 88 71 17 40
16 111 -2 93z"/>
<path d="M430 1915 c0 -7 12 -27 26 -44 20 -24 34 -31 61 -31 35 0 36 1 19 19
-17 19 -17 19 4 14 20 -5 21 -4 10 16 -13 25 -18 27 -77 34 -32 4 -43 2 -43
-8z"/>
<path d="M2097 1921 c-44 -6 -66 -21 -67 -45 0 -4 9 -6 21 -3 20 5 20 5 3 -14
-18 -20 -18 -20 21 -17 32 2 44 9 62 37 24 35 29 52 16 50 -5 -1 -30 -5 -56
-8z"/>
<path d="M370 1798 c0 -19 41 -84 62 -97 20 -13 94 -18 105 -7 3 3 -4 14 -15
25 -27 23 -29 35 -2 19 10 -7 22 -9 25 -6 13 13 -7 48 -33 62 -33 16 -142 20
-142 4z"/>
<path d="M2077 1795 c-24 -12 -51 -58 -37 -63 5 -2 18 2 29 8 27 14 27 6 -1
-20 -12 -11 -19 -22 -16 -25 12 -13 79 -7 102 9 21 13 66 82 66 100 0 9 -123
1 -143 -9z"/>
<path d="M311 1618 c11 -49 48 -88 85 -88 27 0 28 3 13 33 -12 22 -12 22 10 3
21 -19 21 -19 21 6 0 32 -23 51 -84 72 -27 9 -51 16 -52 16 -1 0 2 -19 7 -42z"/>
<path d="M2218 1641 c-55 -19 -63 -26 -72 -65 l-7 -29 28 18 28 18 -18 -26
c-17 -27 -17 -27 8 -27 39 0 65 18 81 55 15 37 19 76 7 74 -5 -1 -29 -9 -55
-18z"/>
<path d="M266 1462 c11 -66 58 -112 115 -112 20 0 20 1 -2 32 l-23 32 24 -17
c34 -24 43 -21 35 11 -9 39 -22 49 -92 70 l-63 20 6 -36z"/>
<path d="M2260 1477 c-66 -22 -90 -42 -90 -74 0 -28 7 -29 33 -5 19 17 20 17
3 -15 -16 -32 -16 -33 4 -33 55 0 116 69 108 123 l-3 22 -55 -18z"/>
<path d="M252 1246 c6 -20 21 -45 33 -56 24 -22 81 -34 90 -19 4 5 2 9 -3 9
-6 0 -12 7 -16 15 -4 13 -2 14 14 5 15 -8 20 -8 20 2 0 25 -30 56 -60 62 -17
3 -43 9 -59 12 l-30 5 11 -35z"/>
<path d="M2300 1273 c-62 -10 -89 -25 -99 -53 -9 -28 -9 -29 17 -19 25 10 25
9 9 -9 -9 -10 -17 -21 -17 -25 0 -10 73 3 88 16 25 20 53 99 35 96 -5 -1 -19
-4 -33 -6z"/>
<path d="M601 1234 c0 -11 3 -14 6 -6 3 7 2 16 -1 19 -3 4 -6 -2 -5 -13z"/>
<path d="M305 1111 l-50 -18 35 -31 c37 -34 75 -41 112 -21 l21 11 -24 19
c-21 16 -22 18 -4 15 32 -5 38 4 14 25 -26 23 -39 23 -104 0z"/>
<path d="M2182 1114 c-29 -20 -28 -33 3 -29 33 3 32 -3 -2 -16 l-28 -11 25
-13 c41 -23 76 -18 115 16 l36 32 -53 18 c-65 23 -68 23 -96 3z"/>
<path d="M1325 1004 c-98 -74 -133 -129 -149 -234 -7 -44 -10 -80 -6 -80 9 0
44 39 58 65 11 20 11 20 12 -1 0 -36 -59 -141 -102 -179 -91 -83 -269 -131
-476 -130 -39 0 -72 -2 -72 -4 0 -12 81 -76 118 -93 36 -16 48 -17 77 -8 18 6
36 16 39 23 3 9 5 9 5 0 1 -7 -15 -23 -35 -37 l-36 -24 48 -24 c66 -33 113
-35 147 -7 42 32 43 16 2 -19 -39 -35 -35 -42 35 -57 73 -16 118 -6 170 39 23
19 23 20 10 1 -8 -11 -25 -32 -38 -47 l-24 -27 35 -6 c50 -10 211 -10 281 -1
l58 8 -36 37 c-20 20 -36 40 -36 45 0 4 7 0 16 -9 51 -51 123 -61 204 -29 l41
17 -23 15 c-26 19 -37 29 -58 57 -13 18 -12 18 10 -1 43 -37 70 -47 112 -40
33 6 91 28 107 42 2 2 -16 22 -40 44 l-44 41 38 -25 c57 -37 101 -25 195 56
18 15 29 28 25 29 -4 0 -60 2 -123 4 -63 2 -133 6 -155 10 -140 22 -258 71
-315 130 l-35 37 35 -21 c54 -32 61 -28 40 27 -17 43 -21 80 -36 287 -6 87
-13 125 -24 125 -5 0 -30 -16 -55 -36z"/>
<path d="M862 1009 c-97 -48 -140 -175 -92 -274 45 -93 89 -117 220 -119 l95
-1 3 113 c2 95 0 112 -13 112 -12 0 -15 -16 -15 -95 l0 -95 -70 0 c-39 0 -86
6 -104 14 -91 38 -129 152 -82 245 33 64 90 88 201 86 75 -2 101 7 89 27 -3 4
-47 8 -97 8 -74 0 -101 -4 -135 -21z"/>
<path d="M1506 994 c-3 -9 -6 -18 -6 -20 0 -2 43 -4 96 -4 115 0 154 -15 192
-73 55 -83 24 -210 -61 -250 -23 -11 -61 -17 -111 -17 l-75 0 -3 93 c-4 131
-23 114 -23 -20 l0 -108 94 -1 c129 0 175 25 221 121 37 76 21 169 -40 232
-45 48 -93 63 -198 63 -64 0 -81 -3 -86 -16z"/>
<path d="M335 972 c-22 -8 -42 -17 -44 -18 -2 -2 8 -14 23 -29 31 -31 71 -40
111 -25 l30 11 -25 19 c-24 19 -25 19 -2 15 28 -5 30 20 3 35 -26 13 -47 12
-96 -8z"/>
<path d="M2152 974 c-26 -18 -21 -35 8 -29 12 2 18 0 15 -6 -4 -5 -13 -9 -21
-9 -20 0 -17 -18 5 -30 35 -18 69 -11 107 22 l36 32 -48 17 c-62 22 -75 23
-102 3z"/>
<path d="M445 848 c-11 -7 -26 -18 -33 -25 -7 -7 -23 -19 -35 -28 -21 -15 -21
-15 -2 -30 11 -8 27 -15 35 -16 8 -1 25 -3 38 -4 23 -2 82 38 82 56 0 5 -12 9
-27 10 l-28 0 25 10 c24 10 24 11 6 25 -24 17 -34 17 -61 2z"/>
<path d="M2077 846 c-17 -13 -16 -15 10 -24 l28 -10 -27 -1 c-33 -1 -35 -14
-8 -41 30 -30 66 -35 111 -15 21 10 39 21 38 24 -1 11 -104 81 -119 81 -8 0
-23 -7 -33 -14z"/>
</g>
</svg>
