<svg style="display: block; margin: auto" xmlns="http://www.w3.org/2000/svg" xmlns:xlink="http://www.w3.org/1999/xlink" aria-hidden="true" role="img"
    class="primary icon  ChatBotIcon_large__2h6MX" width="1em" height="1em" preserveAspectRatio="xMidYMid meet"
    viewBox="0 0 512 512">
    <path fill="#149381" fill-rule="evenodd"
        d="M69.153 185.266l303.155 10.105c.202 11.419-.02 18.169 0 30.315 47.444 8.044 70.737 40.067 70.737 70.737 0 34.772-29.174 67.32-90.947 70.736-.334.738-15.3 27.81-51.243 50.586 44.392 2.092 71.453 7.125 71.453 14.704 0 15.085-63.855 15.537-144.088 15.551h-12.493c-81.405-.006-146.574-.31-146.574-15.551 0-7.57 26.94-12.592 71.17-14.693-15.804-10.429-28.132-23.839-36.51-39.006-34.68-52.699-35.58-133.338-34.66-193.484zm132.145 179.033a6.72 6.72 0 00-9.458.89c-2.375 2.86-1.991 7.113.859 9.498.606.506 11.53 9.428 28.345 9.428 5.982 0 12.712-1.131 19.978-4.153 3.435-1.445 5.052-5.396 3.627-8.842a6.718 6.718 0 00-8.791-3.628c-18.514 7.716-31.87-1.192-34.22-2.932l-.135-.102c-.101-.076-.17-.13-.205-.159zm171.01-108.297c-1.485 24.212-3.537 57.61-10.105 80.841 36.146-4.456 40.42-20.21 40.42-40.42s-3.86-34.297-30.315-40.421zm-214.482-30.275c-24.9-.94-49.526 14.844-56.428 38.086-3.678 1.728-8.67 2.294-12.156 2.526l.121 12.571a.174.174 0 01.025-.002h.103c1.034.024 7.782.589 10.17 1.811 2.192 27.021 27.314 50.243 54.284 51.254 40.563.98 61.38-37.046 54.558-67.897 10.762-8.963 22.828-2.183 24.131.788-9.125 30.265 8.853 69.857 49.425 71.939 26.97 1.03 53.709-20.25 57.862-47.02 2.638-1.111 11.884-1.06 12.137-.98v-12.641c-5.073-.637-7.377-.88-12.632-3.386-5.194-23.686-28.598-41.29-53.497-42.23-23.11-.808-38.662 8.317-47.343 21.495-1.637.889-3.8 1.152-6.356-.03-6.982-3.214-9.943-3.083-11.126-3.244-1.738.11-3.84-.102-10.246 2.394-3.042 1.122-5.548.748-7.367-.414-7.69-13.814-22.545-24.09-45.665-25.02zm80.955 56.248c.91-25.374 21.959-45.25 46.888-44.311 24.93.94 44.473 22.343 43.554 47.727-.93 25.374-21.969 45.24-46.908 44.311-24.93-.95-44.463-22.353-43.534-47.727zm-128.117-4.827c.93-25.374 21.968-45.251 46.898-44.311 24.94.94 44.473 22.352 43.543 47.716-.92 25.375-21.958 45.262-46.898 44.312-24.93-.94-44.473-22.343-43.543-47.717zm169.68-9.088c-6.033-.363-11.227 4.224-11.59 10.277-.385 6.033 4.213 11.237 10.236 11.611 6.033.364 11.217-4.224 11.59-10.267.374-6.043-4.213-11.247-10.236-11.62zm-116.264-6.444c-6.033-.374-11.217 4.224-11.58 10.277-.385 6.033 4.203 11.237 10.236 11.611 6.023.364 11.206-4.224 11.58-10.277.374-6.033-4.203-11.237-10.236-11.61zm230.2-168.724c-1.496-11.641 16.613-11.51 18.119 0 3.395 26.526-10.773 43.806-35.601 51.021-23.09 6.76-59.277 7.235-67.422 34.924-3.324 11.257-20.827 6.497-17.502-4.81 7.427-25.112 29.083-35.308 52.8-40.937a366.221 366.221 0 016.67-1.503l1.499-.326 1.5-.326 1.5-.329c21.243-4.675 41.916-10.451 38.437-37.714zm-50.22-18.128c-3.901-10.772 13.59-15.38 17.501-4.709 25.334 69.766-96.342 42.877-102.446 96.666-1.273 11.187-19.432 11.318-18.108 0 3.162-28.153 24.565-42.24 50.404-50.637 21.514-7.013 63.774-10.721 52.648-41.32z">
    </path>
</svg>